<?xml version="1.0" encoding="UTF-8" standalone="no"?> <svg width="64" height="64" viewBox="0 0 64 64" fill="none" xmlns="http://www.w3.org/2000/svg">
<path d="M52 56V61C52 61.55 52.45 62 53 62C53.55 62 54 61.55 54 61V56C54 55.45 53.55 55 53 55C52.45 55 52 55.45 52 56Z" fill="black"/>
<path d="M42 56V61C42 61.55 42.45 62 43 62C43.55 62 44 61.55 44 61V56C44 55.45 43.55 55 43 55C42.45 55 42 55.45 42 56Z" fill="black"/>
<path d="M34 56V61C34 61.55 34.45 62 35 62C35.55 62 36 61.55 36 61V56C36 55.45 35.55 55 35 55C34.45 55 34 55.45 34 56Z" fill="black"/>
<path d="M25 31V25H28L23 18L18 25H21V31H25Z" fill="black"/>
<path d="M24 56V61C24 61.55 24.45 62 25 62C25.55 62 26 61.55 26 61V56C26 55.45 25.55 55 25 55C24.45 55 24 55.45 24 56Z" fill="black"/>
<path d="M25 13V10C25 9.45 24.55 9 24 9C23.45 9 23 9.45 23 10V13C23 13.55 23.45 14 24 14C24.55 14 25 13.55 25 13Z" fill="black"/>
<path d="M22 6V4C22 3.45 21.55 3 21 3C20.45 3 20 3.45 20 4V6C20 6.55 20.45 7 21 7C21.55 7 22 6.55 22 6Z" fill="black"/>
<path d="M19 14V16C19 16.55 19.45 17 20 17C20.55 17 21 16.55 21 16V14C21 13.45 20.55 13 20 13C19.45 13 19 13.45 19 14Z" fill="black"/>
<path d="M16 10H20L12 3L4 10H8V21H16V10Z" fill="black"/>
<path d="M16 56V61C16 61.55 16.45 62 17 62C17.55 62 18 61.55 18 61V56C18 55.45 17.55 55 17 55C16.45 55 16 55.45 16 56Z" fill="black"/>
<path d="M13 27V31C13 31.55 13.45 32 14 32C14.55 32 15 31.55 15 31V27C15 26.45 14.55 26 14 26C13.45 26 13 26.45 13 27Z" fill="black"/>
<path d="M3 62C3.55 62 4 61.55 4 61V52C4 49.79 5.79 48 8 48H12H16C18.21 48 20 49.79 20 52V61C20 61.55 20.45 62 21 62C21.55 62 22 61.55 22 61V52C22 49.79 23.79 48 26 48H30H34C36.21 48 38 49.79 38 52V61C38 61.55 38.45 62 39 62C39.55 62 40 61.55 40 61V52C40 49.79 41.79 48 44 48H48H52C54.21 48 56 49.79 56 52V61C56 61.55 56.45 62 57 62C57.55 62 58 61.55 58 61V52V36H61C61.55 36 62 35.55 62 35V31C62 30.45 61.55 30 61 30H55V21C55 17.69 52.31 15 49 15H48.46C49.42 13.94 50 12.54 50 11V7C50 4.24 47.76 2 45 2H37C36.45 2 36 2.45 36 3V5C36 6.3 36.84 7.41 38 7.82V11C38 12.54 38.58 13.94 39.54 15H35.78L35 11.88V10C35 8.35 33.65 7 32 7C30.35 7 29 8.35 29 10V12C29 12.08 29.01 12.15 29.02 12.22L30.33 18.08C30.84 20.39 32.85 22 35.21 22H37V30H29C28.45 30 28 30.45 28 31V34C25.24 34 23 36.24 23 39C23 40.63 23.79 42.09 25 43C25 44.13 25.37 45.17 26 46C23.91 46 22.07 47.07 21 48.69C19.93 47.07 18.09 46 16 46C16.63 45.17 17 44.13 17 43C18.21 42.09 19 40.63 19 39C19 36.24 16.76 34 14 34H10C7.24 34 5 36.24 5 39C5 40.63 5.79 42.09 7 43C7 44.13 7.37 45.17 8 46C4.69 46 2 48.69 2 52V61C2 61.55 2.45 62 3 62ZM48 46C46.67 46 45.54 45.12 45.15 43.92C45.43 43.98 45.71 44 46 44H50C50.29 44 50.57 43.98 50.85 43.92C50.46 45.12 49.33 46 48 46ZM55 39C55 37.87 54.63 36.83 54 36H56V47.54C54.94 46.58 53.54 46 52 46C52.63 45.17 53 44.13 53 43C54.21 42.09 55 40.63 55 39ZM49 17C51.21 17 53 18.79 53 21V30H51V23C51 22.45 50.55 22 50 22C49.45 22 49 22.45 49 23V30H45.2L46.83 27.55C46.96 27.36 47.02 27.13 47 26.9L46.3 19.92C46.74 19.4 47 18.72 47 18V17H49ZM40 8H48V11C48 13.21 46.21 15 44 15C41.79 15 40 13.21 40 11V8ZM31 10C31 9.45 31.45 9 32 9C32.55 9 33 9.45 33 10V11H31V10ZM35.21 20C33.79 20 32.59 19.03 32.28 17.65L31.25 13H33.22L34.03 16.24C34.14 16.69 34.54 17 35 17H41V18C41 18.72 41.26 19.4 41.7 19.92L41 26.9C40.98 27.13 41.04 27.36 41.17 27.55L42.8 30H39V21C39 20.45 38.55 20 38 20H35.21ZM35 43C36.21 42.09 37 40.63 37 39C37 37.87 36.63 36.83 36 36H42C41.37 36.83 41 37.87 41 39C41 40.63 41.79 42.09 43 43C43 44.13 43.37 45.17 44 46C41.91 46 40.07 47.07 39 48.69C37.93 47.07 36.09 46 34 46C34.63 45.17 35 44.13 35 43ZM28 44H32C32.29 44 32.57 43.98 32.85 43.92C32.46 45.12 31.33 46 30 46C28.67 46 27.54 45.12 27.15 43.92C27.43 43.98 27.71 44 28 44ZM10 44H14C14.29 44 14.57 43.98 14.85 43.92C14.46 45.12 13.33 46 12 46C10.67 46 9.54 45.12 9.15 43.92C9.43 43.98 9.71 44 10 44Z" fill="black"/>
<path d="M9 25V29C9 29.55 9.45 30 10 30C10.55 30 11 29.55 11 29V25C11 24.45 10.55 24 10 24C9.45 24 9 24.45 9 25Z" fill="black"/>
<path d="M6 56V61C6 61.55 6.45 62 7 62C7.55 62 8 61.55 8 61V56C8 55.45 7.55 55 7 55C6.45 55 6 55.45 6 56Z" fill="black"/>
<path d="M3 19V29C3 29.55 3.45 30 4 30C4.55 30 5 29.55 5 29V19C5 18.45 4.55 18 4 18C3.45 18 3 18.45 3 19Z" fill="black"/>
</svg>
