<svg width="386" height="165" viewBox="0 0 386 165" fill="none" xmlns="http://www.w3.org/2000/svg">
<path d="M8.51885 156.745H0V105.711H8.51885V156.745ZM67.7871 136.104C67.7998 138.381 67.5015 140.648 66.9022 142.83C66.3614 144.856 65.5327 146.777 64.4461 148.524C63.3972 150.232 62.1025 151.746 60.6117 153.008C59.1113 154.298 57.4302 155.32 55.6322 156.032L65.5922 164.608H53.2405L45.0506 157.457H36.6641C33.9853 157.485 31.3266 156.953 28.833 155.889C26.5046 154.875 24.3878 153.363 22.6086 151.442C20.8367 149.504 19.434 147.206 18.4809 144.679C17.4774 141.952 16.9763 139.039 17.006 136.103V126.352C16.9786 123.428 17.4797 120.527 18.4809 117.812C19.4212 115.282 20.8231 112.984 22.6021 111.058C24.3812 109.131 26.5006 107.615 28.833 106.602C31.3217 105.517 33.9824 104.973 36.6641 105.001H48.1968C50.8675 104.971 53.5173 105.515 55.9936 106.602C58.3219 107.617 60.4386 109.13 62.218 111.051C63.9957 112.975 65.3895 115.276 66.3125 117.812C67.3144 120.526 67.8155 123.428 67.7874 126.352L67.7871 136.104ZM59.2683 126.352C59.2914 124.661 59.0132 122.981 58.4491 121.405C57.9537 119.976 57.1832 118.677 56.1888 117.597C55.1945 116.517 53.9994 115.68 52.6834 115.142C51.2544 114.534 49.7307 114.232 48.1962 114.252H36.6628C35.1064 114.232 33.5607 114.534 32.1083 115.142C30.7916 115.687 29.5949 116.526 28.5958 117.604C27.5966 118.683 26.8173 119.978 26.3083 121.405C25.7661 122.987 25.4995 124.665 25.522 126.352V136.104C25.5015 137.803 25.768 139.491 26.3083 141.086C26.8268 142.511 27.6071 143.807 28.6015 144.894C29.6091 145.956 30.8008 146.791 32.1074 147.349C33.5647 147.934 35.1084 148.224 36.6619 148.203H48.1278C49.6705 148.226 51.2035 147.936 52.6486 147.349C53.9676 146.797 55.1708 145.962 56.1867 144.894C57.1784 143.811 57.9487 142.514 58.4471 141.086C59.0093 139.497 59.2874 137.806 59.2663 136.104L59.2683 126.352Z" fill="#FF8F00"/>
<path d="M84.0074 156.749H75.4885V105.715H84.0074V156.749ZM140.917 152.798C140.923 153.436 140.8 154.068 140.557 154.649C140.345 155.208 140.033 155.716 139.64 156.143C139.255 156.557 138.798 156.884 138.296 157.105C137.766 157.343 137.198 157.464 136.624 157.46C136.076 157.455 135.533 157.347 135.02 157.14C134.484 156.917 134.002 156.564 133.61 156.107L102.486 120.805V156.749H93.9681V109.666C93.959 108.751 94.2108 107.856 94.6888 107.104C95.1648 106.346 95.8216 105.743 96.5889 105.36C97.3767 105.007 98.2445 104.92 99.0786 105.111C99.9182 105.27 100.688 105.719 101.273 106.392L132.399 141.659V105.715H140.917V152.798ZM189.701 135.893H162.769V126.57H189.701V135.893ZM193.502 114.967H159.363V156.749H150.844V110.378C150.84 109.755 150.951 109.137 151.171 108.562C151.38 108.009 151.679 107.503 152.055 107.067C152.449 106.64 152.916 106.302 153.431 106.071C153.971 105.83 154.55 105.709 155.134 105.715H193.502L193.502 114.967ZM208.964 156.748H200.447V105.715H208.964V156.748ZM265.876 152.798C265.881 153.436 265.758 154.068 265.515 154.649C265.304 155.208 264.992 155.716 264.598 156.143C264.213 156.557 263.757 156.884 263.255 157.105C262.725 157.343 262.157 157.464 261.584 157.46C261.036 157.455 260.492 157.347 259.978 157.14C259.443 156.917 258.961 156.563 258.57 156.107L227.445 120.805V156.749H218.926V109.666C218.916 108.751 219.168 107.856 219.647 107.104C220.122 106.346 220.779 105.743 221.547 105.36C222.335 105.007 223.203 104.92 224.038 105.111C224.877 105.27 225.647 105.72 226.233 106.392L257.359 141.659V105.715H265.876L265.876 152.798ZM284.387 156.749H275.869V105.715H284.387V156.749ZM336.809 114.969H318.036V156.749H309.517V114.969H290.711V105.715H336.809V114.969ZM381.727 135.893H354.829V126.57H381.727L381.727 135.893ZM385.56 156.748H354.829C353.517 156.726 352.215 156.497 350.963 156.071C349.547 155.611 348.224 154.862 347.064 153.865C345.835 152.753 344.821 151.386 344.084 149.844C343.297 148.184 342.904 146.155 342.905 143.758V110.378C342.902 109.755 343.013 109.137 343.232 108.562C343.44 108.009 343.74 107.502 344.117 107.067C344.511 106.64 344.978 106.301 345.493 106.071C346.033 105.83 346.613 105.709 347.197 105.715H385.56V114.969H351.422V143.759C351.422 144.969 351.717 145.895 352.306 146.535C352.895 147.175 353.758 147.495 354.895 147.496H385.56V156.748Z" fill="black"/>
<path d="M164.844 2.48807C165.926 3.42647 166.527 4.69895 166.527 6.02621V7.32974C166.527 7.85955 166.412 8.38189 166.191 8.85417C165.729 9.84551 164.844 10.6451 163.717 11.0797C159.825 7.26036 155.64 5.086 155.827 1.01476H160.749C162.228 0.990945 163.671 1.51013 164.844 2.48807V2.48807Z" fill="#FF7D00"/>
<path d="M164.858 2.5306C165.94 3.46899 166.605 4.81816 166.531 6.11256V7.4033C166.519 7.9363 166.393 8.45901 166.162 8.92956C165.31 6.92253 164.865 4.7403 164.858 2.5306V2.5306Z" fill="#F97723"/>
<path d="M238.217 70.4331C238.069 71.5836 237.544 72.6376 236.737 73.4016C235.055 75.1616 232.051 75.4099 230.022 73.9493C229.796 73.7884 229.584 73.6051 229.389 73.4016L229.377 73.3907L228.836 72.8612L227.321 71.3678L227.24 71.2875L225.31 69.3925C225.233 69.324 225.164 69.2462 225.103 69.1606H219.523C216.335 69.1606 213.75 66.9223 213.747 64.1565V62.9351C213.748 62.7164 213.767 62.4983 213.804 62.2833C214.188 60.2477 216.21 58.7525 218.588 58.7452H218.645C221.292 58.7123 223.417 56.841 223.416 54.5461V15.4331C223.418 15.372 223.415 15.3108 223.405 15.2505C223.308 12.7895 221.161 10.7557 218.344 10.4563C218.11 10.4283 217.876 10.4149 217.641 10.4161H191.205C191.159 10.4143 191.113 10.418 191.067 10.4271C190.789 10.4327 190.511 10.4595 190.236 10.5074H190.213C187.912 10.8379 186.078 12.3514 185.58 14.3267C185.477 14.6811 185.426 15.0507 185.429 15.4221V45.0582C185.429 46.7396 184.34 48.2805 182.61 49.0381C182.442 49.1186 182.268 49.1857 182.09 49.2389C181.507 49.434 180.899 49.5319 180.288 49.5292C177.443 49.5292 175.137 47.521 175.136 45.0582V5.01582C175.136 2.32479 177.584 0.115734 180.689 0.0116715C180.766 0.00711617 180.843 0.00711617 180.921 0.0116715H227.885C231.072 0.0116715 233.655 2.25724 233.66 5.02495V63.1341L235.093 64.538L235.369 64.8192L236.744 66.172C236.86 66.2815 236.965 66.4038 237.069 66.5225C237.401 66.9043 237.67 67.3452 237.865 67.826C238.209 68.6408 238.331 69.5455 238.217 70.4331V70.4331Z" fill="#F97723"/>
<path d="M233.655 5.0151V47.1716C230.316 47.1424 226.32 46.4303 223.419 43.7941V15.4324C223.421 15.3712 223.417 15.31 223.407 15.2498C223.31 12.7888 221.164 10.755 218.347 10.4556C218.114 10.4276 217.879 10.4141 217.644 10.4154H191.209C191.163 10.4136 191.116 10.4173 191.071 10.4264C190.789 10.4316 190.508 10.4585 190.23 10.5067H190.208C186.383 7.54913 183.738 5.11369 186.972 0H227.88C231.067 0 233.65 2.24557 233.655 5.01328V5.0151Z" fill="#E26B1E"/>
<path d="M233.656 5.01423V42.8402C228.582 42.6576 223.211 40.4942 223.696 34.0369C223.864 31.9118 223.755 30.3289 223.418 29.1258V15.4333C223.421 15.3722 223.418 15.311 223.408 15.2507C223.311 12.7897 221.163 10.756 218.347 10.4565C218.113 10.4285 217.878 10.4151 217.643 10.4164H196.234C195.565 8.77833 195.218 7.00656 195.216 5.21458C195.214 3.4226 195.557 1.64991 196.223 0.0100808H227.879C231.068 0.00460382 233.651 2.24652 233.656 5.01423Z" fill="#FFA026"/>
<path d="M233.654 5.01496V37.5976C229.335 37.1576 225.409 34.5104 228.722 29.3821C233.286 22.2949 229.577 18.2748 224.263 19.2661C223.977 19.3209 223.697 19.3878 223.422 19.4669V15.4322C223.424 15.3711 223.42 15.3099 223.41 15.2496C223.313 12.7886 221.167 10.7549 218.35 10.4554C218.117 10.4274 217.882 10.414 217.647 10.4153H204.946C206.965 4.3705 207.961 2.06468 205.523 0.0089798H227.878C231.075 0.0089798 233.649 2.25455 233.654 5.02043V5.01496Z" fill="#FB8625"/>
<path d="M233.654 5.01422V18.588C232.407 16.7131 229.9 15.3603 224.62 15.2891C224.206 15.2891 223.8 15.269 223.407 15.2489C223.309 12.7897 221.164 10.7559 218.347 10.4565C218.113 10.4276 217.878 10.4142 217.643 10.4164H213.078C210.652 6.84902 211.069 2.24651 211.473 0.0100708H227.877C231.075 0.0100708 233.649 2.25564 233.654 5.02335V5.01422Z" fill="#FFA026"/>
<path d="M185.554 22.7685C185.578 22.7885 185.613 22.8086 185.647 22.8397C185.613 22.8999 185.578 22.9492 185.554 23.0003V45.1566C185.554 46.838 184.466 48.3789 182.736 49.1365C182.567 49.2171 182.394 49.2842 182.216 49.3374C181.632 49.5324 181.025 49.6303 180.414 49.6277C177.568 49.6277 175.263 47.6194 175.261 45.1566V5.11426C175.261 2.42322 177.71 0.214169 180.814 0.110106C180.892 0.105551 180.969 0.105551 181.047 0.110106H185.472C182.593 3.2539 181.506 7.35983 182.514 11.2777C183.094 13.4889 184.138 15.5242 185.565 17.2239L185.554 22.7685Z" fill="#FF8F11"/>
<path d="M238.341 70.5317C238.194 71.6821 237.669 72.7362 236.862 73.5002C235.18 75.2602 232.176 75.5085 230.147 74.0479C229.921 73.887 229.709 73.7037 229.514 73.5002L229.502 73.4893L228.96 72.9598L227.446 71.4664L227.365 71.3861L225.445 69.4911C225.368 69.4233 225.298 69.3461 225.237 69.261H219.648C216.46 69.261 213.875 67.0228 213.872 64.2569V63.0355C213.873 62.8168 213.892 62.5987 213.929 62.3837C214.313 60.3481 216.335 58.8511 218.713 58.8438H218.77C221.417 58.8109 223.542 56.9396 223.542 54.6447V52.4247C227.581 49.5274 231.064 48.8263 233.778 49.0162V63.2327L235.21 64.6366L235.488 64.9178L236.862 66.2706C236.975 66.3814 237.083 66.4984 237.185 66.6211C237.518 67.0028 237.788 67.4437 237.983 67.9246C238.33 68.7387 238.454 69.6434 238.341 70.5317V70.5317Z" fill="#FFA026"/>
<path d="M185.554 22.7683C185.577 22.7883 185.613 22.8084 185.646 22.8395C185.613 22.8997 185.577 22.949 185.554 23.0001V45.1564C185.554 46.8378 184.465 48.3787 182.735 49.1363C182.567 49.2169 182.393 49.284 182.215 49.3372C181.631 49.5322 181.024 49.6301 180.413 49.6275C177.568 49.6275 175.262 47.6192 175.261 45.1564V17.8061C177.421 18.4579 181.845 20.0151 185.554 22.7683Z" fill="#F97723"/>
<path d="M220.613 69.2579H220.369C217.303 69.2579 214.816 67.0197 214.816 64.2538V63.0306C214.818 62.812 214.836 62.594 214.871 62.3788C218.846 64.1442 220.28 66.7805 220.613 69.2579Z" fill="#FF7D00"/>
<path d="M182.215 49.3368C181.631 49.5319 181.024 49.6298 180.413 49.6271C177.568 49.6271 175.262 47.6189 175.261 45.1561V26.4047C177.941 26.9067 183.82 28.6922 185.162 34.9579C186.085 39.2519 183.041 44.7362 182.215 49.3368Z" fill="#F69921"/>
<path d="M238.344 70.5314C238.196 71.6819 237.671 72.736 236.865 73.5C235.182 75.2599 232.178 75.5082 230.149 74.0477C229.923 73.8868 229.711 73.7034 229.516 73.5L229.504 73.489L228.963 72.9596L227.448 71.4662L227.367 71.3858C227.415 71.2343 227.448 71.0846 227.484 70.924C228.303 67.2544 225.335 62.3725 227.795 57.2315C229.333 54.0329 231.608 52.8097 233.78 52.5085V63.2361L235.212 64.64L235.49 64.9212L236.865 66.274C236.979 66.3835 237.083 66.5058 237.188 66.6245C237.52 67.0062 237.79 67.4471 237.985 67.928C238.33 68.7412 238.455 69.6443 238.344 70.5314V70.5314Z" fill="#F97723"/>
<path d="M204.397 24.9769V65.169C204.397 67.9367 201.81 70.1786 198.62 70.1804H152.777C149.588 70.1804 147.002 67.9367 147 65.169V6.02834C146.998 5.76472 147.025 5.50182 147.081 5.24513C147.522 2.81152 149.941 1.01689 152.777 1.01506H160.748C163.945 1.01506 166.523 3.2588 166.524 6.02651V7.33004C166.525 7.85993 166.41 8.38243 166.188 8.85447C165.461 10.4154 163.714 11.4378 161.774 11.4414C159.159 11.4414 157.042 13.2835 157.039 15.551V54.7426C157.042 55.4537 157.216 56.1517 157.544 56.7673C158.269 58.2041 159.731 59.2593 161.495 59.6135C161.933 59.7068 162.378 59.7544 162.824 59.7559H188.522C191.719 59.7559 194.297 57.5121 194.299 54.7444V24.9861C194.299 24.5098 194.389 24.0387 194.565 23.6022V23.5675C195.083 22.2293 196.313 21.1941 197.868 20.7797C198.353 20.6557 198.849 20.5944 199.347 20.5972C202.135 20.5972 204.395 22.5597 204.395 24.9788L204.397 24.9769Z" fill="#F97723"/>
<path d="M204.401 24.9763V45.7779C201.986 46.1431 197.874 46.3895 194.305 44.7556V24.9763C194.305 24.5001 194.396 24.0292 194.571 23.5924V23.5669C195.089 22.2287 196.321 21.1935 197.875 20.7791C198.36 20.655 198.857 20.5937 199.354 20.5965C202.141 20.5965 204.403 22.5591 204.403 24.9781L204.401 24.9763Z" fill="#FF7D00"/>
<path d="M204.401 24.9763V41.2758C201.293 41.8473 197.1 41.641 194.305 39.6017V24.9763C194.305 24.5001 194.396 24.0292 194.571 23.5924V23.5669C195.089 22.2287 196.321 21.1935 197.875 20.7791C198.36 20.655 198.857 20.5937 199.354 20.5965C202.141 20.5965 204.403 22.5591 204.403 24.9781L204.401 24.9763Z" fill="#F46F00"/>
<path d="M204.526 49.0428V65.2748C204.526 68.0425 201.94 70.2863 198.751 70.2881H194.96C194.936 70.4378 194.914 70.5875 194.879 70.7281C194.798 70.5875 194.711 70.4378 194.625 70.2881H152.906C149.717 70.2881 147.131 68.0425 147.129 65.2748V6.1269C147.128 5.86328 147.155 5.60038 147.21 5.34369C147.651 2.91007 150.071 1.11544 152.906 1.11362H153.495C152.622 3.52821 152.46 6.17717 153.032 8.69561C153.672 11.5363 155.09 14.2018 157.168 16.4656V54.8412C157.171 55.5522 157.345 56.2502 157.673 56.8658C158.398 58.3026 159.861 59.3579 161.624 59.7139C162.061 59.8074 162.506 59.8545 162.952 59.8544H188.651C191.849 59.8544 194.426 57.6125 194.428 54.8448V49.3769C198.923 47.0602 202.446 47.9639 204.526 49.0428Z" fill="#F08F00"/>
<path d="M187.777 70.1823H152.777C149.588 70.1823 147.002 67.9367 147 65.169V15.7172C149.208 16.5205 152.777 18.0905 155.816 20.63V20.641C156.231 20.9915 156.647 21.3621 157.041 21.7528V54.7426C157.043 55.4537 157.217 56.1517 157.545 56.7673C158.271 58.2041 159.733 59.2593 161.496 59.6153C161.934 59.7089 162.379 59.756 162.826 59.7559H173.627C185.35 60.6778 187.788 65.9504 187.777 70.1823Z" fill="#F79921"/>
<path d="M176.799 70.1826H152.78C149.592 70.1826 147.005 67.937 147.004 65.1693V24.5354C149.719 25.2657 154.248 27.3616 155.38 33.2274C156.674 39.9148 149.696 49.3389 153.697 54.3522C154.424 55.265 155.521 56.0355 157.093 56.6069C157.243 56.658 157.394 56.7164 157.532 56.7676C158.257 58.2044 159.72 59.2596 161.483 59.6156C162.915 61.5289 163.078 63.7252 163.713 65.5107C164.487 67.7015 165.966 69.2898 171.384 68.9995C171.522 68.9886 171.662 68.9886 171.8 68.9886C174.028 68.9283 175.633 69.4304 176.799 70.1826Z" fill="#F08F00"/>
<path d="M204.402 51.4787V65.0361C204.402 67.8421 201.815 70.1151 198.625 70.1169H194.837C195.31 66.3068 192.838 61.3537 195.032 56.1323C197.447 50.4417 201.814 50.6955 204.402 51.4787Z" fill="#FF7D00"/>
</svg>
