<svg width="386" height="60" viewBox="0 0 386 60" fill="none" xmlns="http://www.w3.org/2000/svg">
<path d="M8.51885 51.7453H0V0.71077H8.51885V51.7453ZM67.7871 31.1037C67.7998 33.3811 67.5015 35.648 66.9022 37.8304C66.3614 39.8555 65.5327 41.7765 64.4461 43.5239C63.3972 45.2318 62.1025 46.7456 60.6117 48.0075C59.1113 49.2984 57.4302 50.3196 55.6322 51.0322L65.5922 59.6083H53.2405L45.0506 52.4565H36.6641C33.9853 52.4846 31.3266 51.9526 28.833 50.8894C26.5046 49.8752 24.3878 48.3627 22.6086 46.4418C20.8367 44.5041 19.434 42.2059 18.4809 39.6786C17.4774 36.9523 16.9763 34.0385 17.006 31.1025V21.3524C16.9786 18.4282 17.4797 15.5266 18.4809 12.8121C19.4212 10.2818 20.8231 7.98419 22.6021 6.05763C24.3812 4.13106 26.5006 2.61531 28.833 1.60157C31.3217 0.516552 33.9824 -0.0271799 36.6641 0.0012163H48.1968C50.8675 -0.0292975 53.5173 0.514601 55.9936 1.60157C58.3219 2.61662 60.4386 4.12958 62.218 6.05058C63.9957 7.97498 65.3895 10.2765 66.3125 12.8116C67.3144 15.526 67.8155 18.4277 67.7874 21.3519L67.7871 31.1037ZM59.2683 21.3524C59.2914 19.6614 59.0132 17.9815 58.4491 16.4052C57.9538 14.9757 57.1832 13.6775 56.1888 12.5974C55.1945 11.5174 53.9994 10.6804 52.6834 10.1423C51.2544 9.53444 49.7307 9.23228 48.1962 9.25247H36.6628C35.1064 9.23231 33.5607 9.5343 32.1083 10.1423C30.7916 10.6867 29.5949 11.5256 28.5958 12.6045C27.5966 13.6834 26.8173 14.9782 26.3083 16.4052C25.7661 17.987 25.4995 19.6646 25.522 21.3524V31.1037C25.5015 32.8026 25.768 34.4911 26.3083 36.0855C26.8268 37.5108 27.6071 38.8066 28.6015 39.8938C29.6091 40.956 30.8008 41.7906 32.1074 42.3491C33.5647 42.9341 35.1084 43.2236 36.6619 43.2032H48.1278C49.6705 43.2256 51.2035 42.936 52.6486 42.3491C53.9676 41.7965 55.1708 40.9615 56.1867 39.8938C57.1784 38.8112 57.9487 37.5136 58.4471 36.0855C59.0093 34.4966 59.2874 32.8058 59.2663 31.1037L59.2683 21.3524Z" fill="#FF8F00"/>
<path d="M84.0074 51.7494H75.4885V0.714632H84.0074V51.7494ZM140.917 47.7984C140.923 48.4363 140.8 49.0678 140.557 49.6487C140.345 50.2078 140.033 50.7158 139.64 51.1433C139.255 51.5569 138.798 51.8836 138.296 52.1046C137.766 52.3428 137.198 52.4637 136.624 52.4604C136.076 52.4552 135.533 52.3468 135.02 52.1399C134.484 51.917 134.002 51.5638 133.61 51.1075L102.486 15.8048V51.7494H93.9681V4.6657C93.959 3.75132 94.2108 2.85631 94.6888 2.10361C95.1648 1.34601 95.8216 0.743419 96.5889 0.360449C97.3767 0.00687429 98.2445 -0.0799486 99.0786 0.111356C99.9182 0.270141 100.688 0.719497 101.273 1.3924L132.399 36.6592V0.714632H140.917V47.7984ZM189.701 30.8926H162.769V21.5695H189.701V30.8926ZM193.502 9.96707H159.363V51.7494H150.844V5.37786C150.84 4.75482 150.951 4.13729 151.171 3.56186C151.38 3.00936 151.679 2.50285 152.055 2.06732C152.449 1.64022 152.916 1.30165 153.431 1.07095C153.971 0.829706 154.55 0.708701 155.134 0.715106H193.502L193.502 9.96707ZM208.964 51.7485H200.447V0.714632H208.964V51.7485ZM265.876 47.7984C265.881 48.4363 265.758 49.0678 265.515 49.6487C265.304 50.2078 264.992 50.7158 264.598 51.1433C264.213 51.5572 263.757 51.8839 263.255 52.1046C262.725 52.3428 262.157 52.4637 261.584 52.4604C261.036 52.4551 260.492 52.3467 259.978 52.1399C259.443 51.9166 258.961 51.5635 258.57 51.1075L227.445 15.8048V51.7494H218.926V4.6657C218.916 3.75123 219.168 2.85604 219.647 2.10361C220.122 1.34554 220.779 0.742827 221.547 0.360449C222.335 0.00681636 223.203 -0.0800042 224.038 0.111356C224.877 0.270498 225.647 0.719798 226.233 1.3924L257.359 36.6592V0.714632H265.876L265.876 47.7984ZM284.387 51.7494H275.869V0.714632H284.387V51.7494ZM336.809 9.96897H318.036V51.7494H309.517V9.96897H290.711V0.714632H336.809V9.96897ZM381.727 30.8926H354.829V21.5695H381.727L381.727 30.8926ZM385.56 51.7485H354.829C353.517 51.7255 352.215 51.4974 350.963 51.0712C349.547 50.6105 348.224 49.8618 347.064 48.8649C345.835 47.7532 344.821 46.3863 344.084 44.8441C343.297 43.1835 342.904 41.1549 342.905 38.7582V5.37786C342.902 4.75488 343.013 4.1375 343.232 3.56186C343.44 3.00897 343.74 2.50237 344.117 2.06732C344.511 1.63977 344.978 1.30113 345.493 1.07095C346.033 0.829904 346.613 0.708907 347.197 0.715106H385.56V9.96897H351.422V38.7592C351.422 39.9694 351.717 40.8946 352.306 41.5348C352.895 42.175 353.758 42.4954 354.895 42.496H385.56V51.7485Z" fill="black"/>
</svg>
